<mxfile host="app.diagrams.net" modified="2024-04-23T01:21:58.750Z" agent="Mozilla/5.0 (X11; Linux x86_64) AppleWebKit/537.36 (KHTML, like Gecko) Chrome/123.0.0.0 Safari/537.36" etag="In447P7DsEqVhEPR7Sro" version="24.2.8" type="device">
  <diagram name="Page-1" id="di9kM8G4p0a4JoEeV2_Q">
    <mxGraphModel dx="1040" dy="626" grid="1" gridSize="10" guides="1" tooltips="1" connect="1" arrows="1" fold="1" page="1" pageScale="1" pageWidth="850" pageHeight="1100" background="none" math="1" shadow="0">
      <root>
        <mxCell id="0" />
        <mxCell id="1" parent="0" />
        <mxCell id="yMQZBFmg6irm1E2yCBW1-1" value="&lt;font style=&quot;font-size: 30px;&quot;&gt;$$\mathbf{x}_0$$&lt;/font&gt;" style="ellipse;whiteSpace=wrap;html=1;aspect=fixed;labelBackgroundColor=none;fillColor=#21C0A5;strokeColor=#006658;fontColor=#5C5C5C;" vertex="1" parent="1">
          <mxGeometry x="200" y="250" width="70" height="70" as="geometry" />
        </mxCell>
        <mxCell id="yMQZBFmg6irm1E2yCBW1-2" value="&lt;font style=&quot;font-size: 30px;&quot;&gt;$$\mathbf{x}_1$$&lt;/font&gt;" style="ellipse;whiteSpace=wrap;html=1;aspect=fixed;labelBackgroundColor=none;fillColor=#21C0A5;strokeColor=#006658;fontColor=#5C5C5C;" vertex="1" parent="1">
          <mxGeometry x="340" y="250" width="70" height="70" as="geometry" />
        </mxCell>
        <mxCell id="yMQZBFmg6irm1E2yCBW1-3" value="&lt;font style=&quot;font-size: 30px;&quot;&gt;$$\mathbf{x}_{t-1}$$&lt;/font&gt;" style="ellipse;whiteSpace=wrap;html=1;aspect=fixed;labelBackgroundColor=none;fillColor=#21C0A5;strokeColor=#006658;fontColor=#5C5C5C;" vertex="1" parent="1">
          <mxGeometry x="578" y="250" width="70" height="70" as="geometry" />
        </mxCell>
        <mxCell id="yMQZBFmg6irm1E2yCBW1-4" value="" style="endArrow=classic;html=1;rounded=0;labelBackgroundColor=none;strokeColor=#006658;fontColor=default;" edge="1" parent="1">
          <mxGeometry width="50" height="50" relative="1" as="geometry">
            <mxPoint x="270" y="284.5" as="sourcePoint" />
            <mxPoint x="340" y="284.5" as="targetPoint" />
          </mxGeometry>
        </mxCell>
        <mxCell id="yMQZBFmg6irm1E2yCBW1-5" value="" style="endArrow=classic;html=1;rounded=0;labelBackgroundColor=none;strokeColor=#006658;fontColor=default;" edge="1" parent="1">
          <mxGeometry width="50" height="50" relative="1" as="geometry">
            <mxPoint x="410" y="284.5" as="sourcePoint" />
            <mxPoint x="468" y="284.5" as="targetPoint" />
          </mxGeometry>
        </mxCell>
        <mxCell id="yMQZBFmg6irm1E2yCBW1-11" value="" style="group;labelBackgroundColor=none;fontColor=#5C5C5C;" vertex="1" connectable="0" parent="1">
          <mxGeometry x="480" y="283.5" width="30" height="3" as="geometry" />
        </mxCell>
        <mxCell id="yMQZBFmg6irm1E2yCBW1-8" value="" style="ellipse;whiteSpace=wrap;html=1;aspect=fixed;fillColor=#21C0A5;labelBackgroundColor=none;strokeColor=#006658;fontColor=#5C5C5C;" vertex="1" parent="yMQZBFmg6irm1E2yCBW1-11">
          <mxGeometry width="3" height="3" as="geometry" />
        </mxCell>
        <mxCell id="yMQZBFmg6irm1E2yCBW1-9" value="" style="ellipse;whiteSpace=wrap;html=1;aspect=fixed;fillColor=#21C0A5;labelBackgroundColor=none;strokeColor=#006658;fontColor=#5C5C5C;" vertex="1" parent="yMQZBFmg6irm1E2yCBW1-11">
          <mxGeometry x="12.73" width="3" height="3" as="geometry" />
        </mxCell>
        <mxCell id="yMQZBFmg6irm1E2yCBW1-10" value="" style="ellipse;whiteSpace=wrap;html=1;aspect=fixed;fillColor=#21C0A5;labelBackgroundColor=none;strokeColor=#006658;fontColor=#5C5C5C;" vertex="1" parent="yMQZBFmg6irm1E2yCBW1-11">
          <mxGeometry x="24.545454545454543" width="3" height="3" as="geometry" />
        </mxCell>
        <mxCell id="yMQZBFmg6irm1E2yCBW1-13" value="" style="endArrow=classic;html=1;rounded=0;labelBackgroundColor=none;strokeColor=#006658;fontColor=default;" edge="1" parent="1">
          <mxGeometry width="50" height="50" relative="1" as="geometry">
            <mxPoint x="520" y="284.88" as="sourcePoint" />
            <mxPoint x="578" y="284.88" as="targetPoint" />
          </mxGeometry>
        </mxCell>
        <mxCell id="yMQZBFmg6irm1E2yCBW1-14" value="&lt;font style=&quot;font-size: 30px;&quot;&gt;$$\mathbf{x}_{t}$$&lt;/font&gt;" style="ellipse;whiteSpace=wrap;html=1;aspect=fixed;labelBackgroundColor=none;fillColor=#21C0A5;strokeColor=#006658;fontColor=#5C5C5C;" vertex="1" parent="1">
          <mxGeometry x="730" y="250" width="70" height="70" as="geometry" />
        </mxCell>
        <mxCell id="yMQZBFmg6irm1E2yCBW1-15" value="" style="endArrow=classic;html=1;rounded=0;entryX=-0.045;entryY=0.495;entryDx=0;entryDy=0;entryPerimeter=0;labelBackgroundColor=none;strokeColor=#006658;fontColor=default;" edge="1" parent="1" target="yMQZBFmg6irm1E2yCBW1-14">
          <mxGeometry width="50" height="50" relative="1" as="geometry">
            <mxPoint x="648" y="284.5" as="sourcePoint" />
            <mxPoint x="706" y="284.5" as="targetPoint" />
          </mxGeometry>
        </mxCell>
        <mxCell id="yMQZBFmg6irm1E2yCBW1-21" value="&lt;font style=&quot;font-size: 30px;&quot;&gt;$$\mathbf{x}_{T}$$&lt;/font&gt;" style="ellipse;whiteSpace=wrap;html=1;aspect=fixed;labelBackgroundColor=none;fillColor=#21C0A5;strokeColor=#006658;fontColor=#5C5C5C;" vertex="1" parent="1">
          <mxGeometry x="968" y="250" width="70" height="70" as="geometry" />
        </mxCell>
        <mxCell id="yMQZBFmg6irm1E2yCBW1-22" value="" style="endArrow=classic;html=1;rounded=0;labelBackgroundColor=none;strokeColor=#006658;fontColor=default;" edge="1" parent="1">
          <mxGeometry width="50" height="50" relative="1" as="geometry">
            <mxPoint x="800" y="284.5" as="sourcePoint" />
            <mxPoint x="858" y="284.5" as="targetPoint" />
          </mxGeometry>
        </mxCell>
        <mxCell id="yMQZBFmg6irm1E2yCBW1-23" value="" style="group;labelBackgroundColor=none;fontColor=#5C5C5C;" vertex="1" connectable="0" parent="1">
          <mxGeometry x="870" y="283.5" width="30" height="3" as="geometry" />
        </mxCell>
        <mxCell id="yMQZBFmg6irm1E2yCBW1-24" value="" style="ellipse;whiteSpace=wrap;html=1;aspect=fixed;fillColor=#21C0A5;labelBackgroundColor=none;strokeColor=#006658;fontColor=#5C5C5C;" vertex="1" parent="yMQZBFmg6irm1E2yCBW1-23">
          <mxGeometry width="3" height="3" as="geometry" />
        </mxCell>
        <mxCell id="yMQZBFmg6irm1E2yCBW1-25" value="" style="ellipse;whiteSpace=wrap;html=1;aspect=fixed;fillColor=#21C0A5;labelBackgroundColor=none;strokeColor=#006658;fontColor=#5C5C5C;" vertex="1" parent="yMQZBFmg6irm1E2yCBW1-23">
          <mxGeometry x="12.73" width="3" height="3" as="geometry" />
        </mxCell>
        <mxCell id="yMQZBFmg6irm1E2yCBW1-26" value="" style="ellipse;whiteSpace=wrap;html=1;aspect=fixed;fillColor=#21C0A5;labelBackgroundColor=none;strokeColor=#006658;fontColor=#5C5C5C;" vertex="1" parent="yMQZBFmg6irm1E2yCBW1-23">
          <mxGeometry x="24.545454545454543" width="3" height="3" as="geometry" />
        </mxCell>
        <mxCell id="yMQZBFmg6irm1E2yCBW1-27" value="" style="endArrow=classic;html=1;rounded=0;labelBackgroundColor=none;strokeColor=#006658;fontColor=default;" edge="1" parent="1">
          <mxGeometry width="50" height="50" relative="1" as="geometry">
            <mxPoint x="910" y="284.88" as="sourcePoint" />
            <mxPoint x="968" y="284.88" as="targetPoint" />
          </mxGeometry>
        </mxCell>
        <mxCell id="yMQZBFmg6irm1E2yCBW1-30" value="" style="curved=1;endArrow=classic;html=1;rounded=0;entryX=0.5;entryY=0;entryDx=0;entryDy=0;exitX=0.5;exitY=0;exitDx=0;exitDy=0;labelBackgroundColor=none;strokeColor=#006658;fontColor=default;" edge="1" parent="1" source="yMQZBFmg6irm1E2yCBW1-3" target="yMQZBFmg6irm1E2yCBW1-14">
          <mxGeometry width="50" height="50" relative="1" as="geometry">
            <mxPoint x="640" y="240" as="sourcePoint" />
            <mxPoint x="690" y="190" as="targetPoint" />
            <Array as="points">
              <mxPoint x="630" y="190" />
              <mxPoint x="720" y="170" />
            </Array>
          </mxGeometry>
        </mxCell>
        <mxCell id="yMQZBFmg6irm1E2yCBW1-32" value="&lt;font style=&quot;font-size: 30px;&quot;&gt;$$q(\mathbf{x}_t | \mathbf{x}_{t-1})$$&lt;/font&gt;" style="text;html=1;align=center;verticalAlign=middle;whiteSpace=wrap;rounded=0;labelBackgroundColor=none;fontColor=#5C5C5C;" vertex="1" parent="1">
          <mxGeometry x="660" y="140" width="60" height="30" as="geometry" />
        </mxCell>
      </root>
    </mxGraphModel>
  </diagram>
</mxfile>
